<mxfile host="app.diagrams.net" modified="2021-03-27T06:18:18.927Z" agent="5.0 (Windows NT 10.0; Win64; x64) AppleWebKit/537.36 (KHTML, like Gecko) Chrome/89.0.4389.90 Safari/537.36" etag="bbbgNq9M4TtMKHS4GR-P" version="14.5.3" type="github">
  <diagram id="d29HOsNNRMLOvXJ0hiMW" name="Page-1">
    <mxGraphModel dx="1422" dy="794" grid="1" gridSize="10" guides="1" tooltips="1" connect="1" arrows="1" fold="1" page="1" pageScale="1" pageWidth="850" pageHeight="1100" math="0" shadow="0">
      <root>
        <mxCell id="0" />
        <mxCell id="1" parent="0" />
        <mxCell id="WFl_14sr6cJnBJ0Phv-3-1" value="Actor" style="shape=umlActor;verticalLabelPosition=bottom;verticalAlign=top;html=1;outlineConnect=0;" vertex="1" parent="1">
          <mxGeometry x="40" y="80" width="30" height="60" as="geometry" />
        </mxCell>
        <mxCell id="WFl_14sr6cJnBJ0Phv-3-11" style="edgeStyle=orthogonalEdgeStyle;rounded=0;orthogonalLoop=1;jettySize=auto;html=1;exitX=0.5;exitY=1;exitDx=0;exitDy=0;dashed=1;endArrow=none;endFill=0;" edge="1" parent="1" source="WFl_14sr6cJnBJ0Phv-3-2" target="WFl_14sr6cJnBJ0Phv-3-3">
          <mxGeometry relative="1" as="geometry" />
        </mxCell>
        <mxCell id="WFl_14sr6cJnBJ0Phv-3-2" value="User Interface" style="rounded=0;whiteSpace=wrap;html=1;" vertex="1" parent="1">
          <mxGeometry x="210" y="20" width="80" height="30" as="geometry" />
        </mxCell>
        <mxCell id="WFl_14sr6cJnBJ0Phv-3-12" style="edgeStyle=orthogonalEdgeStyle;rounded=0;orthogonalLoop=1;jettySize=auto;html=1;exitX=0.5;exitY=1;exitDx=0;exitDy=0;dashed=1;endArrow=none;endFill=0;" edge="1" parent="1" source="WFl_14sr6cJnBJ0Phv-3-3">
          <mxGeometry relative="1" as="geometry">
            <mxPoint x="250" y="430" as="targetPoint" />
          </mxGeometry>
        </mxCell>
        <mxCell id="WFl_14sr6cJnBJ0Phv-3-3" value="" style="rounded=0;whiteSpace=wrap;html=1;" vertex="1" parent="1">
          <mxGeometry x="240" y="80" width="20" height="270" as="geometry" />
        </mxCell>
        <mxCell id="WFl_14sr6cJnBJ0Phv-3-10" style="edgeStyle=orthogonalEdgeStyle;rounded=0;orthogonalLoop=1;jettySize=auto;html=1;exitX=0.5;exitY=1;exitDx=0;exitDy=0;entryX=0.5;entryY=0;entryDx=0;entryDy=0;dashed=1;endArrow=none;endFill=0;" edge="1" parent="1" source="WFl_14sr6cJnBJ0Phv-3-5" target="WFl_14sr6cJnBJ0Phv-3-7">
          <mxGeometry relative="1" as="geometry" />
        </mxCell>
        <mxCell id="WFl_14sr6cJnBJ0Phv-3-5" value="Store" style="rounded=0;whiteSpace=wrap;html=1;" vertex="1" parent="1">
          <mxGeometry x="370" y="20" width="80" height="30" as="geometry" />
        </mxCell>
        <mxCell id="WFl_14sr6cJnBJ0Phv-3-13" style="edgeStyle=orthogonalEdgeStyle;rounded=0;orthogonalLoop=1;jettySize=auto;html=1;exitX=0.5;exitY=1;exitDx=0;exitDy=0;dashed=1;endArrow=none;endFill=0;" edge="1" parent="1" source="WFl_14sr6cJnBJ0Phv-3-7">
          <mxGeometry relative="1" as="geometry">
            <mxPoint x="410" y="440" as="targetPoint" />
          </mxGeometry>
        </mxCell>
        <mxCell id="WFl_14sr6cJnBJ0Phv-3-7" value="" style="rounded=0;whiteSpace=wrap;html=1;" vertex="1" parent="1">
          <mxGeometry x="400" y="80" width="20" height="270" as="geometry" />
        </mxCell>
        <mxCell id="WFl_14sr6cJnBJ0Phv-3-14" value="listAllProduct" style="endArrow=classic;html=1;verticalAlign=bottom;" edge="1" parent="1">
          <mxGeometry relative="1" as="geometry">
            <mxPoint x="120" y="110" as="sourcePoint" />
            <mxPoint x="240" y="109.5" as="targetPoint" />
          </mxGeometry>
        </mxCell>
        <mxCell id="WFl_14sr6cJnBJ0Phv-3-16" value="listAllProduct()" style="endArrow=classic;html=1;verticalAlign=bottom;entryX=0;entryY=0.25;entryDx=0;entryDy=0;exitX=1;exitY=0.25;exitDx=0;exitDy=0;" edge="1" parent="1" source="WFl_14sr6cJnBJ0Phv-3-3" target="WFl_14sr6cJnBJ0Phv-3-7">
          <mxGeometry relative="1" as="geometry">
            <mxPoint x="260" y="150.5" as="sourcePoint" />
            <mxPoint x="380" y="150" as="targetPoint" />
          </mxGeometry>
        </mxCell>
        <mxCell id="WFl_14sr6cJnBJ0Phv-3-20" style="edgeStyle=orthogonalEdgeStyle;rounded=0;orthogonalLoop=1;jettySize=auto;html=1;exitX=0.5;exitY=1;exitDx=0;exitDy=0;entryX=0.5;entryY=0;entryDx=0;entryDy=0;endArrow=none;endFill=0;dashed=1;" edge="1" parent="1" source="WFl_14sr6cJnBJ0Phv-3-18" target="WFl_14sr6cJnBJ0Phv-3-19">
          <mxGeometry relative="1" as="geometry" />
        </mxCell>
        <mxCell id="WFl_14sr6cJnBJ0Phv-3-18" value="Catalog" style="rounded=0;whiteSpace=wrap;html=1;" vertex="1" parent="1">
          <mxGeometry x="550" y="20" width="80" height="30" as="geometry" />
        </mxCell>
        <mxCell id="WFl_14sr6cJnBJ0Phv-3-22" style="edgeStyle=orthogonalEdgeStyle;rounded=0;orthogonalLoop=1;jettySize=auto;html=1;exitX=0.5;exitY=1;exitDx=0;exitDy=0;dashed=1;endArrow=none;endFill=0;" edge="1" parent="1" source="WFl_14sr6cJnBJ0Phv-3-19">
          <mxGeometry relative="1" as="geometry">
            <mxPoint x="590" y="440" as="targetPoint" />
          </mxGeometry>
        </mxCell>
        <mxCell id="WFl_14sr6cJnBJ0Phv-3-19" value="" style="rounded=0;whiteSpace=wrap;html=1;" vertex="1" parent="1">
          <mxGeometry x="580" y="80" width="20" height="270" as="geometry" />
        </mxCell>
        <mxCell id="WFl_14sr6cJnBJ0Phv-3-21" value="productList = listAllProduct()" style="endArrow=classic;html=1;verticalAlign=bottom;" edge="1" parent="1">
          <mxGeometry relative="1" as="geometry">
            <mxPoint x="420" y="170" as="sourcePoint" />
            <mxPoint x="579" y="170" as="targetPoint" />
          </mxGeometry>
        </mxCell>
        <mxCell id="WFl_14sr6cJnBJ0Phv-3-23" value="result" style="endArrow=none;html=1;verticalAlign=bottom;entryX=0;entryY=0.25;entryDx=0;entryDy=0;exitX=1;exitY=0.25;exitDx=0;exitDy=0;dashed=1;endFill=0;startArrow=classic;startFill=1;" edge="1" parent="1">
          <mxGeometry relative="1" as="geometry">
            <mxPoint x="260" y="190" as="sourcePoint" />
            <mxPoint x="400" y="190.0000000000001" as="targetPoint" />
          </mxGeometry>
        </mxCell>
        <mxCell id="WFl_14sr6cJnBJ0Phv-3-24" value="result" style="endArrow=none;html=1;verticalAlign=bottom;entryX=0;entryY=0.25;entryDx=0;entryDy=0;endFill=0;startArrow=classic;startFill=1;" edge="1" parent="1">
          <mxGeometry relative="1" as="geometry">
            <mxPoint x="120" y="215" as="sourcePoint" />
            <mxPoint x="240" y="214.5000000000001" as="targetPoint" />
          </mxGeometry>
        </mxCell>
      </root>
    </mxGraphModel>
  </diagram>
</mxfile>
